<svg xmlns="http://www.w3.org/2000/svg" width="121" height="121"><path fill="#fff" d="M0 0h122v122H0z"/><path d="M0 0v24h24V0zM24 0v24h24V0zM48 0v24h24V0zM72 0v24h24V0zM96 0v24h24V0zM0 24v24h24V24z" fill="#fecd21"/><path d="M24 24v24h24V24z" fill="#e6170f"/><path d="M48 24v24h24V24zM72 24v24h24V24zM96 24v24h24V24zM0 48v24h24V48z" fill="#fecd21"/><path d="M24 48v24h24V48zM48 48v24h24V48z" fill="#00386a"/><path d="M72 48v24h24V48zM96 48v24h24V48zM0 72v24h24V72zM24 72v24h24V72z" fill="#fecd21"/><path d="M48 72v24h24V72zM72 72v24h24V72z" fill="#00386a"/><path d="M96 72v24h24V72zM0 96v24h24V96zM24 96v24h24V96zM48 96v24h24V96zM72 96v24h24V96zM96 96v24h24V96z" fill="#fecd21"/></svg>